<svg xmlns="http://www.w3.org/2000/svg" viewBox="0 0 512 512">
  <defs>
    <linearGradient id="grad" x1="0%" y1="0%" x2="100%" y2="100%">
      <stop offset="0%" style="stop-color:#15803d;stop-opacity:1" />
      <stop offset="100%" style="stop-color:#166534;stop-opacity:1" />
    </linearGradient>
  </defs>
  <rect width="512" height="512" rx="128" fill="url(#grad)"/>
  <path fill="white" d="M384 224h-64v-64c0-17.67-14.33-32-32-32h-64c-17.67 0-32 14.33-32 32v64h-64c-17.67 0-32 14.33-32 32v64c0 17.67 14.33 32 32 32h64v64c0 17.67 14.33 32 32 32h64c17.67 0 32-14.33 32-32v-64h64c17.67 0 32-14.33 32-32v-64c0-17.67-14.33-32-32-32z"/>
</svg>
